<mxfile host="app.diagrams.net" modified="2022-10-04T19:24:29.907Z" agent="5.0 (Windows NT 10.0; Win64; x64) AppleWebKit/537.36 (KHTML, like Gecko) Chrome/104.0.5112.124 YaBrowser/22.9.2.1495 Yowser/2.5 Safari/537.36" etag="LK14qSpGNHblLvDsLplj" version="20.4.0" type="github">
  <diagram id="jbFNEz6OSFcvc54MY78p" name="Страница 1">
    <mxGraphModel dx="1151" dy="3004" grid="1" gridSize="10" guides="1" tooltips="1" connect="1" arrows="1" fold="1" page="1" pageScale="1" pageWidth="1654" pageHeight="1169" math="0" shadow="0">
      <root>
        <mxCell id="0" />
        <mxCell id="1" parent="0" />
        <mxCell id="V7BMSc1rYyxdGBKiwd-H-23" value="Post" style="shape=table;startSize=30;container=1;collapsible=1;childLayout=tableLayout;fixedRows=1;rowLines=0;fontStyle=1;align=center;resizeLast=1;fillColor=#B2C9AB;strokeColor=#788AA3;fontColor=#46495D;rounded=0;fontFamily=roboto;fontSource=https%3A%2F%2Ffonts.googleapis.com%2Fcss%3Ffamily%3Droboto;" parent="1" vertex="1">
          <mxGeometry x="330" y="-2300" width="179" height="554" as="geometry" />
        </mxCell>
        <mxCell id="V7BMSc1rYyxdGBKiwd-H-24" value="" style="shape=tableRow;horizontal=0;startSize=0;swimlaneHead=0;swimlaneBody=0;fillColor=none;collapsible=0;dropTarget=0;points=[[0,0.5],[1,0.5]];portConstraint=eastwest;top=0;left=0;right=0;bottom=1;strokeColor=#788AA3;fontColor=#46495D;rounded=0;fontFamily=roboto;fontSource=https%3A%2F%2Ffonts.googleapis.com%2Fcss%3Ffamily%3Droboto;" parent="V7BMSc1rYyxdGBKiwd-H-23" vertex="1">
          <mxGeometry y="30" width="179" height="30" as="geometry" />
        </mxCell>
        <mxCell id="V7BMSc1rYyxdGBKiwd-H-25" value="PK" style="shape=partialRectangle;connectable=0;fillColor=none;top=0;left=0;bottom=0;right=0;fontStyle=1;overflow=hidden;strokeColor=#788AA3;fontColor=#46495D;rounded=0;fontFamily=roboto;fontSource=https%3A%2F%2Ffonts.googleapis.com%2Fcss%3Ffamily%3Droboto;fontSize=16;" parent="V7BMSc1rYyxdGBKiwd-H-24" vertex="1">
          <mxGeometry width="30" height="30" as="geometry">
            <mxRectangle width="30" height="30" as="alternateBounds" />
          </mxGeometry>
        </mxCell>
        <mxCell id="V7BMSc1rYyxdGBKiwd-H-26" value="ID" style="shape=partialRectangle;connectable=0;fillColor=none;top=0;left=0;bottom=0;right=0;align=left;spacingLeft=6;fontStyle=5;overflow=hidden;strokeColor=#788AA3;fontColor=#46495D;rounded=0;fontFamily=roboto;fontSource=https%3A%2F%2Ffonts.googleapis.com%2Fcss%3Ffamily%3Droboto;fontSize=16;" parent="V7BMSc1rYyxdGBKiwd-H-24" vertex="1">
          <mxGeometry x="30" width="149" height="30" as="geometry">
            <mxRectangle width="149" height="30" as="alternateBounds" />
          </mxGeometry>
        </mxCell>
        <mxCell id="V7BMSc1rYyxdGBKiwd-H-27" value="" style="shape=tableRow;horizontal=0;startSize=0;swimlaneHead=0;swimlaneBody=0;fillColor=none;collapsible=0;dropTarget=0;points=[[0,0.5],[1,0.5]];portConstraint=eastwest;top=0;left=0;right=0;bottom=0;strokeColor=#788AA3;fontColor=#46495D;rounded=0;fontFamily=roboto;fontSource=https%3A%2F%2Ffonts.googleapis.com%2Fcss%3Ffamily%3Droboto;" parent="V7BMSc1rYyxdGBKiwd-H-23" vertex="1">
          <mxGeometry y="60" width="179" height="22" as="geometry" />
        </mxCell>
        <mxCell id="V7BMSc1rYyxdGBKiwd-H-28" value="" style="shape=partialRectangle;connectable=0;fillColor=none;top=0;left=0;bottom=0;right=0;editable=1;overflow=hidden;strokeColor=#788AA3;fontColor=#46495D;rounded=0;fontFamily=roboto;fontSource=https%3A%2F%2Ffonts.googleapis.com%2Fcss%3Ffamily%3Droboto;" parent="V7BMSc1rYyxdGBKiwd-H-27" vertex="1">
          <mxGeometry width="30" height="22" as="geometry">
            <mxRectangle width="30" height="22" as="alternateBounds" />
          </mxGeometry>
        </mxCell>
        <mxCell id="V7BMSc1rYyxdGBKiwd-H-29" value="channelId" style="shape=partialRectangle;connectable=0;fillColor=none;top=0;left=0;bottom=0;right=0;align=left;spacingLeft=6;overflow=hidden;strokeColor=#788AA3;fontColor=#46495D;rounded=0;fontFamily=roboto;fontSource=https%3A%2F%2Ffonts.googleapis.com%2Fcss%3Ffamily%3Droboto;fontSize=16;" parent="V7BMSc1rYyxdGBKiwd-H-27" vertex="1">
          <mxGeometry x="30" width="149" height="22" as="geometry">
            <mxRectangle width="149" height="22" as="alternateBounds" />
          </mxGeometry>
        </mxCell>
        <mxCell id="V7BMSc1rYyxdGBKiwd-H-30" value="" style="shape=tableRow;horizontal=0;startSize=0;swimlaneHead=0;swimlaneBody=0;fillColor=none;collapsible=0;dropTarget=0;points=[[0,0.5],[1,0.5]];portConstraint=eastwest;top=0;left=0;right=0;bottom=0;strokeColor=#788AA3;fontColor=#46495D;rounded=0;fontFamily=roboto;fontSource=https%3A%2F%2Ffonts.googleapis.com%2Fcss%3Ffamily%3Droboto;" parent="V7BMSc1rYyxdGBKiwd-H-23" vertex="1">
          <mxGeometry y="82" width="179" height="22" as="geometry" />
        </mxCell>
        <mxCell id="V7BMSc1rYyxdGBKiwd-H-31" value="" style="shape=partialRectangle;connectable=0;fillColor=none;top=0;left=0;bottom=0;right=0;editable=1;overflow=hidden;strokeColor=#788AA3;fontColor=#46495D;rounded=0;fontFamily=roboto;fontSource=https%3A%2F%2Ffonts.googleapis.com%2Fcss%3Ffamily%3Droboto;" parent="V7BMSc1rYyxdGBKiwd-H-30" vertex="1">
          <mxGeometry width="30" height="22" as="geometry">
            <mxRectangle width="30" height="22" as="alternateBounds" />
          </mxGeometry>
        </mxCell>
        <mxCell id="V7BMSc1rYyxdGBKiwd-H-32" value="time" style="shape=partialRectangle;connectable=0;fillColor=none;top=0;left=0;bottom=0;right=0;align=left;spacingLeft=6;overflow=hidden;strokeColor=#788AA3;fontColor=#46495D;rounded=0;fontFamily=roboto;fontSource=https%3A%2F%2Ffonts.googleapis.com%2Fcss%3Ffamily%3Droboto;fontSize=16;" parent="V7BMSc1rYyxdGBKiwd-H-30" vertex="1">
          <mxGeometry x="30" width="149" height="22" as="geometry">
            <mxRectangle width="149" height="22" as="alternateBounds" />
          </mxGeometry>
        </mxCell>
        <mxCell id="V7BMSc1rYyxdGBKiwd-H-33" value="" style="shape=tableRow;horizontal=0;startSize=0;swimlaneHead=0;swimlaneBody=0;fillColor=none;collapsible=0;dropTarget=0;points=[[0,0.5],[1,0.5]];portConstraint=eastwest;top=0;left=0;right=0;bottom=0;strokeColor=#788AA3;fontColor=#46495D;rounded=0;fontFamily=roboto;fontSource=https%3A%2F%2Ffonts.googleapis.com%2Fcss%3Ffamily%3Droboto;" parent="V7BMSc1rYyxdGBKiwd-H-23" vertex="1">
          <mxGeometry y="104" width="179" height="22" as="geometry" />
        </mxCell>
        <mxCell id="V7BMSc1rYyxdGBKiwd-H-34" value="" style="shape=partialRectangle;connectable=0;fillColor=none;top=0;left=0;bottom=0;right=0;editable=1;overflow=hidden;strokeColor=#788AA3;fontColor=#46495D;rounded=0;fontFamily=roboto;fontSource=https%3A%2F%2Ffonts.googleapis.com%2Fcss%3Ffamily%3Droboto;" parent="V7BMSc1rYyxdGBKiwd-H-33" vertex="1">
          <mxGeometry width="30" height="22" as="geometry">
            <mxRectangle width="30" height="22" as="alternateBounds" />
          </mxGeometry>
        </mxCell>
        <mxCell id="V7BMSc1rYyxdGBKiwd-H-35" value="leader" style="shape=partialRectangle;connectable=0;fillColor=none;top=0;left=0;bottom=0;right=0;align=left;spacingLeft=6;overflow=hidden;strokeColor=#788AA3;fontColor=#46495D;rounded=0;fontFamily=roboto;fontSource=https%3A%2F%2Ffonts.googleapis.com%2Fcss%3Ffamily%3Droboto;fontSize=16;" parent="V7BMSc1rYyxdGBKiwd-H-33" vertex="1">
          <mxGeometry x="30" width="149" height="22" as="geometry">
            <mxRectangle width="149" height="22" as="alternateBounds" />
          </mxGeometry>
        </mxCell>
        <mxCell id="V7BMSc1rYyxdGBKiwd-H-36" value="" style="shape=tableRow;horizontal=0;startSize=0;swimlaneHead=0;swimlaneBody=0;fillColor=none;collapsible=0;dropTarget=0;points=[[0,0.5],[1,0.5]];portConstraint=eastwest;top=0;left=0;right=0;bottom=0;strokeColor=#788AA3;fontColor=#46495D;rounded=0;fontFamily=roboto;fontSource=https%3A%2F%2Ffonts.googleapis.com%2Fcss%3Ffamily%3Droboto;" parent="V7BMSc1rYyxdGBKiwd-H-23" vertex="1">
          <mxGeometry y="126" width="179" height="22" as="geometry" />
        </mxCell>
        <mxCell id="V7BMSc1rYyxdGBKiwd-H-37" value="" style="shape=partialRectangle;connectable=0;fillColor=none;top=0;left=0;bottom=0;right=0;editable=1;overflow=hidden;strokeColor=#788AA3;fontColor=#46495D;rounded=0;fontFamily=roboto;fontSource=https%3A%2F%2Ffonts.googleapis.com%2Fcss%3Ffamily%3Droboto;" parent="V7BMSc1rYyxdGBKiwd-H-36" vertex="1">
          <mxGeometry width="30" height="22" as="geometry">
            <mxRectangle width="30" height="22" as="alternateBounds" />
          </mxGeometry>
        </mxCell>
        <mxCell id="V7BMSc1rYyxdGBKiwd-H-38" value="userId" style="shape=partialRectangle;connectable=0;fillColor=none;top=0;left=0;bottom=0;right=0;align=left;spacingLeft=6;overflow=hidden;strokeColor=#788AA3;fontColor=#46495D;rounded=0;fontFamily=roboto;fontSource=https%3A%2F%2Ffonts.googleapis.com%2Fcss%3Ffamily%3Droboto;fontSize=16;" parent="V7BMSc1rYyxdGBKiwd-H-36" vertex="1">
          <mxGeometry x="30" width="149" height="22" as="geometry">
            <mxRectangle width="149" height="22" as="alternateBounds" />
          </mxGeometry>
        </mxCell>
        <mxCell id="V7BMSc1rYyxdGBKiwd-H-39" value="" style="shape=tableRow;horizontal=0;startSize=0;swimlaneHead=0;swimlaneBody=0;fillColor=none;collapsible=0;dropTarget=0;points=[[0,0.5],[1,0.5]];portConstraint=eastwest;top=0;left=0;right=0;bottom=0;strokeColor=#788AA3;fontColor=#46495D;rounded=0;fontFamily=roboto;fontSource=https%3A%2F%2Ffonts.googleapis.com%2Fcss%3Ffamily%3Droboto;" parent="V7BMSc1rYyxdGBKiwd-H-23" vertex="1">
          <mxGeometry y="148" width="179" height="22" as="geometry" />
        </mxCell>
        <mxCell id="V7BMSc1rYyxdGBKiwd-H-40" value="" style="shape=partialRectangle;connectable=0;fillColor=none;top=0;left=0;bottom=0;right=0;editable=1;overflow=hidden;strokeColor=#788AA3;fontColor=#46495D;rounded=0;fontFamily=roboto;fontSource=https%3A%2F%2Ffonts.googleapis.com%2Fcss%3Ffamily%3Droboto;" parent="V7BMSc1rYyxdGBKiwd-H-39" vertex="1">
          <mxGeometry width="30" height="22" as="geometry">
            <mxRectangle width="30" height="22" as="alternateBounds" />
          </mxGeometry>
        </mxCell>
        <mxCell id="V7BMSc1rYyxdGBKiwd-H-41" value="locationStart" style="shape=partialRectangle;connectable=0;fillColor=none;top=0;left=0;bottom=0;right=0;align=left;spacingLeft=6;overflow=hidden;strokeColor=#788AA3;fontColor=#46495D;rounded=0;fontFamily=roboto;fontSource=https%3A%2F%2Ffonts.googleapis.com%2Fcss%3Ffamily%3Droboto;fontSize=16;" parent="V7BMSc1rYyxdGBKiwd-H-39" vertex="1">
          <mxGeometry x="30" width="149" height="22" as="geometry">
            <mxRectangle width="149" height="22" as="alternateBounds" />
          </mxGeometry>
        </mxCell>
        <mxCell id="V7BMSc1rYyxdGBKiwd-H-42" value="" style="shape=tableRow;horizontal=0;startSize=0;swimlaneHead=0;swimlaneBody=0;fillColor=none;collapsible=0;dropTarget=0;points=[[0,0.5],[1,0.5]];portConstraint=eastwest;top=0;left=0;right=0;bottom=0;strokeColor=#788AA3;fontColor=#46495D;rounded=0;fontFamily=roboto;fontSource=https%3A%2F%2Ffonts.googleapis.com%2Fcss%3Ffamily%3Droboto;" parent="V7BMSc1rYyxdGBKiwd-H-23" vertex="1">
          <mxGeometry y="170" width="179" height="22" as="geometry" />
        </mxCell>
        <mxCell id="V7BMSc1rYyxdGBKiwd-H-43" value="" style="shape=partialRectangle;connectable=0;fillColor=none;top=0;left=0;bottom=0;right=0;editable=1;overflow=hidden;strokeColor=#788AA3;fontColor=#46495D;rounded=0;fontFamily=roboto;fontSource=https%3A%2F%2Ffonts.googleapis.com%2Fcss%3Ffamily%3Droboto;" parent="V7BMSc1rYyxdGBKiwd-H-42" vertex="1">
          <mxGeometry width="30" height="22" as="geometry">
            <mxRectangle width="30" height="22" as="alternateBounds" />
          </mxGeometry>
        </mxCell>
        <mxCell id="V7BMSc1rYyxdGBKiwd-H-44" value="locationWeather" style="shape=partialRectangle;connectable=0;fillColor=none;top=0;left=0;bottom=0;right=0;align=left;spacingLeft=6;overflow=hidden;strokeColor=#788AA3;fontColor=#46495D;rounded=0;fontFamily=roboto;fontSource=https%3A%2F%2Ffonts.googleapis.com%2Fcss%3Ffamily%3Droboto;fontSize=16;" parent="V7BMSc1rYyxdGBKiwd-H-42" vertex="1">
          <mxGeometry x="30" width="149" height="22" as="geometry">
            <mxRectangle width="149" height="22" as="alternateBounds" />
          </mxGeometry>
        </mxCell>
        <mxCell id="V7BMSc1rYyxdGBKiwd-H-45" value="" style="shape=tableRow;horizontal=0;startSize=0;swimlaneHead=0;swimlaneBody=0;fillColor=none;collapsible=0;dropTarget=0;points=[[0,0.5],[1,0.5]];portConstraint=eastwest;top=0;left=0;right=0;bottom=0;strokeColor=#788AA3;fontColor=#46495D;rounded=0;fontFamily=roboto;fontSource=https%3A%2F%2Ffonts.googleapis.com%2Fcss%3Ffamily%3Droboto;" parent="V7BMSc1rYyxdGBKiwd-H-23" vertex="1">
          <mxGeometry y="192" width="179" height="22" as="geometry" />
        </mxCell>
        <mxCell id="V7BMSc1rYyxdGBKiwd-H-46" value="" style="shape=partialRectangle;connectable=0;fillColor=none;top=0;left=0;bottom=0;right=0;editable=1;overflow=hidden;strokeColor=#788AA3;fontColor=#46495D;rounded=0;fontFamily=roboto;fontSource=https%3A%2F%2Ffonts.googleapis.com%2Fcss%3Ffamily%3Droboto;" parent="V7BMSc1rYyxdGBKiwd-H-45" vertex="1">
          <mxGeometry width="30" height="22" as="geometry">
            <mxRectangle width="30" height="22" as="alternateBounds" />
          </mxGeometry>
        </mxCell>
        <mxCell id="V7BMSc1rYyxdGBKiwd-H-47" value="distance" style="shape=partialRectangle;connectable=0;fillColor=none;top=0;left=0;bottom=0;right=0;align=left;spacingLeft=6;overflow=hidden;strokeColor=#788AA3;fontColor=#46495D;rounded=0;fontFamily=roboto;fontSource=https%3A%2F%2Ffonts.googleapis.com%2Fcss%3Ffamily%3Droboto;fontSize=16;" parent="V7BMSc1rYyxdGBKiwd-H-45" vertex="1">
          <mxGeometry x="30" width="149" height="22" as="geometry">
            <mxRectangle width="149" height="22" as="alternateBounds" />
          </mxGeometry>
        </mxCell>
        <mxCell id="V7BMSc1rYyxdGBKiwd-H-48" value="" style="shape=tableRow;horizontal=0;startSize=0;swimlaneHead=0;swimlaneBody=0;fillColor=none;collapsible=0;dropTarget=0;points=[[0,0.5],[1,0.5]];portConstraint=eastwest;top=0;left=0;right=0;bottom=0;strokeColor=#788AA3;fontColor=#46495D;rounded=0;fontFamily=roboto;fontSource=https%3A%2F%2Ffonts.googleapis.com%2Fcss%3Ffamily%3Droboto;" parent="V7BMSc1rYyxdGBKiwd-H-23" vertex="1">
          <mxGeometry y="214" width="179" height="22" as="geometry" />
        </mxCell>
        <mxCell id="V7BMSc1rYyxdGBKiwd-H-49" value="" style="shape=partialRectangle;connectable=0;fillColor=none;top=0;left=0;bottom=0;right=0;editable=1;overflow=hidden;strokeColor=#788AA3;fontColor=#46495D;rounded=0;fontFamily=roboto;fontSource=https%3A%2F%2Ffonts.googleapis.com%2Fcss%3Ffamily%3Droboto;" parent="V7BMSc1rYyxdGBKiwd-H-48" vertex="1">
          <mxGeometry width="30" height="22" as="geometry">
            <mxRectangle width="30" height="22" as="alternateBounds" />
          </mxGeometry>
        </mxCell>
        <mxCell id="V7BMSc1rYyxdGBKiwd-H-50" value="level" style="shape=partialRectangle;connectable=0;fillColor=none;top=0;left=0;bottom=0;right=0;align=left;spacingLeft=6;overflow=hidden;strokeColor=#788AA3;fontColor=#46495D;rounded=0;fontFamily=roboto;fontSource=https%3A%2F%2Ffonts.googleapis.com%2Fcss%3Ffamily%3Droboto;fontSize=16;" parent="V7BMSc1rYyxdGBKiwd-H-48" vertex="1">
          <mxGeometry x="30" width="149" height="22" as="geometry">
            <mxRectangle width="149" height="22" as="alternateBounds" />
          </mxGeometry>
        </mxCell>
        <mxCell id="V7BMSc1rYyxdGBKiwd-H-51" value="" style="shape=tableRow;horizontal=0;startSize=0;swimlaneHead=0;swimlaneBody=0;fillColor=none;collapsible=0;dropTarget=0;points=[[0,0.5],[1,0.5]];portConstraint=eastwest;top=0;left=0;right=0;bottom=0;strokeColor=#788AA3;fontColor=#46495D;rounded=0;fontFamily=roboto;fontSource=https%3A%2F%2Ffonts.googleapis.com%2Fcss%3Ffamily%3Droboto;" parent="V7BMSc1rYyxdGBKiwd-H-23" vertex="1">
          <mxGeometry y="236" width="179" height="22" as="geometry" />
        </mxCell>
        <mxCell id="V7BMSc1rYyxdGBKiwd-H-52" value="" style="shape=partialRectangle;connectable=0;fillColor=none;top=0;left=0;bottom=0;right=0;editable=1;overflow=hidden;strokeColor=#788AA3;fontColor=#46495D;rounded=0;fontFamily=roboto;fontSource=https%3A%2F%2Ffonts.googleapis.com%2Fcss%3Ffamily%3Droboto;" parent="V7BMSc1rYyxdGBKiwd-H-51" vertex="1">
          <mxGeometry width="30" height="22" as="geometry">
            <mxRectangle width="30" height="22" as="alternateBounds" />
          </mxGeometry>
        </mxCell>
        <mxCell id="V7BMSc1rYyxdGBKiwd-H-53" value="speed" style="shape=partialRectangle;connectable=0;fillColor=none;top=0;left=0;bottom=0;right=0;align=left;spacingLeft=6;overflow=hidden;strokeColor=#788AA3;fontColor=#46495D;rounded=0;fontFamily=roboto;fontSource=https%3A%2F%2Ffonts.googleapis.com%2Fcss%3Ffamily%3Droboto;fontSize=16;" parent="V7BMSc1rYyxdGBKiwd-H-51" vertex="1">
          <mxGeometry x="30" width="149" height="22" as="geometry">
            <mxRectangle width="149" height="22" as="alternateBounds" />
          </mxGeometry>
        </mxCell>
        <mxCell id="V7BMSc1rYyxdGBKiwd-H-54" value="" style="shape=tableRow;horizontal=0;startSize=0;swimlaneHead=0;swimlaneBody=0;fillColor=none;collapsible=0;dropTarget=0;points=[[0,0.5],[1,0.5]];portConstraint=eastwest;top=0;left=0;right=0;bottom=0;strokeColor=#788AA3;fontColor=#46495D;rounded=0;fontFamily=roboto;fontSource=https%3A%2F%2Ffonts.googleapis.com%2Fcss%3Ffamily%3Droboto;" parent="V7BMSc1rYyxdGBKiwd-H-23" vertex="1">
          <mxGeometry y="258" width="179" height="22" as="geometry" />
        </mxCell>
        <mxCell id="V7BMSc1rYyxdGBKiwd-H-55" value="" style="shape=partialRectangle;connectable=0;fillColor=none;top=0;left=0;bottom=0;right=0;editable=1;overflow=hidden;strokeColor=#788AA3;fontColor=#46495D;rounded=0;fontFamily=roboto;fontSource=https%3A%2F%2Ffonts.googleapis.com%2Fcss%3Ffamily%3Droboto;" parent="V7BMSc1rYyxdGBKiwd-H-54" vertex="1">
          <mxGeometry width="30" height="22" as="geometry">
            <mxRectangle width="30" height="22" as="alternateBounds" />
          </mxGeometry>
        </mxCell>
        <mxCell id="V7BMSc1rYyxdGBKiwd-H-56" value="photoId" style="shape=partialRectangle;connectable=0;fillColor=none;top=0;left=0;bottom=0;right=0;align=left;spacingLeft=6;overflow=hidden;strokeColor=#788AA3;fontColor=#46495D;rounded=0;fontFamily=roboto;fontSource=https%3A%2F%2Ffonts.googleapis.com%2Fcss%3Ffamily%3Droboto;fontSize=16;" parent="V7BMSc1rYyxdGBKiwd-H-54" vertex="1">
          <mxGeometry x="30" width="149" height="22" as="geometry">
            <mxRectangle width="149" height="22" as="alternateBounds" />
          </mxGeometry>
        </mxCell>
        <mxCell id="V7BMSc1rYyxdGBKiwd-H-57" value="" style="shape=tableRow;horizontal=0;startSize=0;swimlaneHead=0;swimlaneBody=0;fillColor=none;collapsible=0;dropTarget=0;points=[[0,0.5],[1,0.5]];portConstraint=eastwest;top=0;left=0;right=0;bottom=0;strokeColor=#788AA3;fontColor=#46495D;rounded=0;fontFamily=roboto;fontSource=https%3A%2F%2Ffonts.googleapis.com%2Fcss%3Ffamily%3Droboto;" parent="V7BMSc1rYyxdGBKiwd-H-23" vertex="1">
          <mxGeometry y="280" width="179" height="22" as="geometry" />
        </mxCell>
        <mxCell id="V7BMSc1rYyxdGBKiwd-H-58" value="" style="shape=partialRectangle;connectable=0;fillColor=none;top=0;left=0;bottom=0;right=0;editable=1;overflow=hidden;strokeColor=#788AA3;fontColor=#46495D;rounded=0;fontFamily=roboto;fontSource=https%3A%2F%2Ffonts.googleapis.com%2Fcss%3Ffamily%3Droboto;" parent="V7BMSc1rYyxdGBKiwd-H-57" vertex="1">
          <mxGeometry width="30" height="22" as="geometry">
            <mxRectangle width="30" height="22" as="alternateBounds" />
          </mxGeometry>
        </mxCell>
        <mxCell id="V7BMSc1rYyxdGBKiwd-H-59" value="description" style="shape=partialRectangle;connectable=0;fillColor=none;top=0;left=0;bottom=0;right=0;align=left;spacingLeft=6;overflow=hidden;strokeColor=#788AA3;fontColor=#46495D;rounded=0;fontFamily=roboto;fontSource=https%3A%2F%2Ffonts.googleapis.com%2Fcss%3Ffamily%3Droboto;fontSize=16;" parent="V7BMSc1rYyxdGBKiwd-H-57" vertex="1">
          <mxGeometry x="30" width="149" height="22" as="geometry">
            <mxRectangle width="149" height="22" as="alternateBounds" />
          </mxGeometry>
        </mxCell>
        <mxCell id="V7BMSc1rYyxdGBKiwd-H-60" value="" style="shape=tableRow;horizontal=0;startSize=0;swimlaneHead=0;swimlaneBody=0;fillColor=none;collapsible=0;dropTarget=0;points=[[0,0.5],[1,0.5]];portConstraint=eastwest;top=0;left=0;right=0;bottom=0;strokeColor=#788AA3;fontColor=#46495D;rounded=0;fontFamily=roboto;fontSource=https%3A%2F%2Ffonts.googleapis.com%2Fcss%3Ffamily%3Droboto;" parent="V7BMSc1rYyxdGBKiwd-H-23" vertex="1">
          <mxGeometry y="302" width="179" height="22" as="geometry" />
        </mxCell>
        <mxCell id="V7BMSc1rYyxdGBKiwd-H-61" value="" style="shape=partialRectangle;connectable=0;fillColor=none;top=0;left=0;bottom=0;right=0;editable=1;overflow=hidden;strokeColor=#788AA3;fontColor=#46495D;rounded=0;fontFamily=roboto;fontSource=https%3A%2F%2Ffonts.googleapis.com%2Fcss%3Ffamily%3Droboto;" parent="V7BMSc1rYyxdGBKiwd-H-60" vertex="1">
          <mxGeometry width="30" height="22" as="geometry">
            <mxRectangle width="30" height="22" as="alternateBounds" />
          </mxGeometry>
        </mxCell>
        <mxCell id="V7BMSc1rYyxdGBKiwd-H-62" value="messageId" style="shape=partialRectangle;connectable=0;fillColor=none;top=0;left=0;bottom=0;right=0;align=left;spacingLeft=6;overflow=hidden;strokeColor=#788AA3;fontColor=#46495D;rounded=0;fontFamily=roboto;fontSource=https%3A%2F%2Ffonts.googleapis.com%2Fcss%3Ffamily%3Droboto;fontSize=16;" parent="V7BMSc1rYyxdGBKiwd-H-60" vertex="1">
          <mxGeometry x="30" width="149" height="22" as="geometry">
            <mxRectangle width="149" height="22" as="alternateBounds" />
          </mxGeometry>
        </mxCell>
        <mxCell id="V7BMSc1rYyxdGBKiwd-H-63" value="" style="shape=tableRow;horizontal=0;startSize=0;swimlaneHead=0;swimlaneBody=0;fillColor=none;collapsible=0;dropTarget=0;points=[[0,0.5],[1,0.5]];portConstraint=eastwest;top=0;left=0;right=0;bottom=0;strokeColor=#788AA3;fontColor=#46495D;rounded=0;fontFamily=roboto;fontSource=https%3A%2F%2Ffonts.googleapis.com%2Fcss%3Ffamily%3Droboto;" parent="V7BMSc1rYyxdGBKiwd-H-23" vertex="1">
          <mxGeometry y="324" width="179" height="22" as="geometry" />
        </mxCell>
        <mxCell id="V7BMSc1rYyxdGBKiwd-H-64" value="" style="shape=partialRectangle;connectable=0;fillColor=none;top=0;left=0;bottom=0;right=0;editable=1;overflow=hidden;strokeColor=#788AA3;fontColor=#46495D;rounded=0;fontFamily=roboto;fontSource=https%3A%2F%2Ffonts.googleapis.com%2Fcss%3Ffamily%3Droboto;" parent="V7BMSc1rYyxdGBKiwd-H-63" vertex="1">
          <mxGeometry width="30" height="22" as="geometry">
            <mxRectangle width="30" height="22" as="alternateBounds" />
          </mxGeometry>
        </mxCell>
        <mxCell id="V7BMSc1rYyxdGBKiwd-H-65" value="messageIdGroup" style="shape=partialRectangle;connectable=0;fillColor=none;top=0;left=0;bottom=0;right=0;align=left;spacingLeft=6;overflow=hidden;strokeColor=#788AA3;fontColor=#46495D;rounded=0;fontFamily=roboto;fontSource=https%3A%2F%2Ffonts.googleapis.com%2Fcss%3Ffamily%3Droboto;fontSize=16;" parent="V7BMSc1rYyxdGBKiwd-H-63" vertex="1">
          <mxGeometry x="30" width="149" height="22" as="geometry">
            <mxRectangle width="149" height="22" as="alternateBounds" />
          </mxGeometry>
        </mxCell>
        <mxCell id="V7BMSc1rYyxdGBKiwd-H-66" value="" style="shape=tableRow;horizontal=0;startSize=0;swimlaneHead=0;swimlaneBody=0;fillColor=none;collapsible=0;dropTarget=0;points=[[0,0.5],[1,0.5]];portConstraint=eastwest;top=0;left=0;right=0;bottom=0;strokeColor=#788AA3;fontColor=#46495D;rounded=0;fontFamily=roboto;fontSource=https%3A%2F%2Ffonts.googleapis.com%2Fcss%3Ffamily%3Droboto;" parent="V7BMSc1rYyxdGBKiwd-H-23" vertex="1">
          <mxGeometry y="346" width="179" height="22" as="geometry" />
        </mxCell>
        <mxCell id="V7BMSc1rYyxdGBKiwd-H-67" value="" style="shape=partialRectangle;connectable=0;fillColor=none;top=0;left=0;bottom=0;right=0;editable=1;overflow=hidden;strokeColor=#788AA3;fontColor=#46495D;rounded=0;fontFamily=roboto;fontSource=https%3A%2F%2Ffonts.googleapis.com%2Fcss%3Ffamily%3Droboto;" parent="V7BMSc1rYyxdGBKiwd-H-66" vertex="1">
          <mxGeometry width="30" height="22" as="geometry">
            <mxRectangle width="30" height="22" as="alternateBounds" />
          </mxGeometry>
        </mxCell>
        <mxCell id="V7BMSc1rYyxdGBKiwd-H-68" value="messageIdWeather" style="shape=partialRectangle;connectable=0;fillColor=none;top=0;left=0;bottom=0;right=0;align=left;spacingLeft=6;overflow=hidden;strokeColor=#788AA3;fontColor=#46495D;rounded=0;fontFamily=roboto;fontSource=https%3A%2F%2Ffonts.googleapis.com%2Fcss%3Ffamily%3Droboto;fontSize=16;" parent="V7BMSc1rYyxdGBKiwd-H-66" vertex="1">
          <mxGeometry x="30" width="149" height="22" as="geometry">
            <mxRectangle width="149" height="22" as="alternateBounds" />
          </mxGeometry>
        </mxCell>
        <mxCell id="V7BMSc1rYyxdGBKiwd-H-69" value="" style="shape=tableRow;horizontal=0;startSize=0;swimlaneHead=0;swimlaneBody=0;fillColor=none;collapsible=0;dropTarget=0;points=[[0,0.5],[1,0.5]];portConstraint=eastwest;top=0;left=0;right=0;bottom=0;strokeColor=#788AA3;fontColor=#46495D;rounded=0;fontFamily=roboto;fontSource=https%3A%2F%2Ffonts.googleapis.com%2Fcss%3Ffamily%3Droboto;" parent="V7BMSc1rYyxdGBKiwd-H-23" vertex="1">
          <mxGeometry y="368" width="179" height="22" as="geometry" />
        </mxCell>
        <mxCell id="V7BMSc1rYyxdGBKiwd-H-70" value="" style="shape=partialRectangle;connectable=0;fillColor=none;top=0;left=0;bottom=0;right=0;editable=1;overflow=hidden;strokeColor=#788AA3;fontColor=#46495D;rounded=0;fontFamily=roboto;fontSource=https%3A%2F%2Ffonts.googleapis.com%2Fcss%3Ffamily%3Droboto;" parent="V7BMSc1rYyxdGBKiwd-H-69" vertex="1">
          <mxGeometry width="30" height="22" as="geometry">
            <mxRectangle width="30" height="22" as="alternateBounds" />
          </mxGeometry>
        </mxCell>
        <mxCell id="V7BMSc1rYyxdGBKiwd-H-71" value="poll" style="shape=partialRectangle;connectable=0;fillColor=none;top=0;left=0;bottom=0;right=0;align=left;spacingLeft=6;overflow=hidden;strokeColor=#788AA3;fontColor=#46495D;rounded=0;fontFamily=roboto;fontSource=https%3A%2F%2Ffonts.googleapis.com%2Fcss%3Ffamily%3Droboto;fontSize=16;" parent="V7BMSc1rYyxdGBKiwd-H-69" vertex="1">
          <mxGeometry x="30" width="149" height="22" as="geometry">
            <mxRectangle width="149" height="22" as="alternateBounds" />
          </mxGeometry>
        </mxCell>
        <mxCell id="V7BMSc1rYyxdGBKiwd-H-72" value="" style="shape=tableRow;horizontal=0;startSize=0;swimlaneHead=0;swimlaneBody=0;fillColor=none;collapsible=0;dropTarget=0;points=[[0,0.5],[1,0.5]];portConstraint=eastwest;top=0;left=0;right=0;bottom=0;strokeColor=#788AA3;fontColor=#46495D;rounded=0;fontFamily=roboto;fontSource=https%3A%2F%2Ffonts.googleapis.com%2Fcss%3Ffamily%3Droboto;" parent="V7BMSc1rYyxdGBKiwd-H-23" vertex="1">
          <mxGeometry y="390" width="179" height="22" as="geometry" />
        </mxCell>
        <mxCell id="V7BMSc1rYyxdGBKiwd-H-73" value="" style="shape=partialRectangle;connectable=0;fillColor=none;top=0;left=0;bottom=0;right=0;editable=1;overflow=hidden;strokeColor=#788AA3;fontColor=#46495D;rounded=0;fontFamily=roboto;fontSource=https%3A%2F%2Ffonts.googleapis.com%2Fcss%3Ffamily%3Droboto;" parent="V7BMSc1rYyxdGBKiwd-H-72" vertex="1">
          <mxGeometry width="30" height="22" as="geometry">
            <mxRectangle width="30" height="22" as="alternateBounds" />
          </mxGeometry>
        </mxCell>
        <mxCell id="V7BMSc1rYyxdGBKiwd-H-74" value="pollUsers" style="shape=partialRectangle;connectable=0;fillColor=none;top=0;left=0;bottom=0;right=0;align=left;spacingLeft=6;overflow=hidden;strokeColor=#788AA3;fontColor=#46495D;rounded=0;fontFamily=roboto;fontSource=https%3A%2F%2Ffonts.googleapis.com%2Fcss%3Ffamily%3Droboto;fontSize=16;" parent="V7BMSc1rYyxdGBKiwd-H-72" vertex="1">
          <mxGeometry x="30" width="149" height="22" as="geometry">
            <mxRectangle width="149" height="22" as="alternateBounds" />
          </mxGeometry>
        </mxCell>
        <mxCell id="V7BMSc1rYyxdGBKiwd-H-75" value="" style="shape=tableRow;horizontal=0;startSize=0;swimlaneHead=0;swimlaneBody=0;fillColor=none;collapsible=0;dropTarget=0;points=[[0,0.5],[1,0.5]];portConstraint=eastwest;top=0;left=0;right=0;bottom=0;strokeColor=#788AA3;fontColor=#46495D;rounded=0;fontFamily=roboto;fontSource=https%3A%2F%2Ffonts.googleapis.com%2Fcss%3Ffamily%3Droboto;" parent="V7BMSc1rYyxdGBKiwd-H-23" vertex="1">
          <mxGeometry y="412" width="179" height="22" as="geometry" />
        </mxCell>
        <mxCell id="V7BMSc1rYyxdGBKiwd-H-76" value="" style="shape=partialRectangle;connectable=0;fillColor=none;top=0;left=0;bottom=0;right=0;editable=1;overflow=hidden;strokeColor=#788AA3;fontColor=#46495D;rounded=0;fontFamily=roboto;fontSource=https%3A%2F%2Ffonts.googleapis.com%2Fcss%3Ffamily%3Droboto;" parent="V7BMSc1rYyxdGBKiwd-H-75" vertex="1">
          <mxGeometry width="30" height="22" as="geometry">
            <mxRectangle width="30" height="22" as="alternateBounds" />
          </mxGeometry>
        </mxCell>
        <mxCell id="V7BMSc1rYyxdGBKiwd-H-77" value="pollQuantity" style="shape=partialRectangle;connectable=0;fillColor=none;top=0;left=0;bottom=0;right=0;align=left;spacingLeft=6;overflow=hidden;strokeColor=#788AA3;fontColor=#46495D;rounded=0;fontFamily=roboto;fontSource=https%3A%2F%2Ffonts.googleapis.com%2Fcss%3Ffamily%3Droboto;fontSize=16;" parent="V7BMSc1rYyxdGBKiwd-H-75" vertex="1">
          <mxGeometry x="30" width="149" height="22" as="geometry">
            <mxRectangle width="149" height="22" as="alternateBounds" />
          </mxGeometry>
        </mxCell>
        <mxCell id="V7BMSc1rYyxdGBKiwd-H-78" value="" style="shape=tableRow;horizontal=0;startSize=0;swimlaneHead=0;swimlaneBody=0;fillColor=none;collapsible=0;dropTarget=0;points=[[0,0.5],[1,0.5]];portConstraint=eastwest;top=0;left=0;right=0;bottom=0;strokeColor=#788AA3;fontColor=#46495D;rounded=0;fontFamily=roboto;fontSource=https%3A%2F%2Ffonts.googleapis.com%2Fcss%3Ffamily%3Droboto;" parent="V7BMSc1rYyxdGBKiwd-H-23" vertex="1">
          <mxGeometry y="434" width="179" height="22" as="geometry" />
        </mxCell>
        <mxCell id="V7BMSc1rYyxdGBKiwd-H-79" value="" style="shape=partialRectangle;connectable=0;fillColor=none;top=0;left=0;bottom=0;right=0;editable=1;overflow=hidden;strokeColor=#788AA3;fontColor=#46495D;rounded=0;fontFamily=roboto;fontSource=https%3A%2F%2Ffonts.googleapis.com%2Fcss%3Ffamily%3Droboto;" parent="V7BMSc1rYyxdGBKiwd-H-78" vertex="1">
          <mxGeometry width="30" height="22" as="geometry">
            <mxRectangle width="30" height="22" as="alternateBounds" />
          </mxGeometry>
        </mxCell>
        <mxCell id="V7BMSc1rYyxdGBKiwd-H-80" value="tempDay" style="shape=partialRectangle;connectable=0;fillColor=none;top=0;left=0;bottom=0;right=0;align=left;spacingLeft=6;overflow=hidden;strokeColor=#788AA3;fontColor=#46495D;rounded=0;fontFamily=roboto;fontSource=https%3A%2F%2Ffonts.googleapis.com%2Fcss%3Ffamily%3Droboto;fontSize=16;" parent="V7BMSc1rYyxdGBKiwd-H-78" vertex="1">
          <mxGeometry x="30" width="149" height="22" as="geometry">
            <mxRectangle width="149" height="22" as="alternateBounds" />
          </mxGeometry>
        </mxCell>
        <mxCell id="V7BMSc1rYyxdGBKiwd-H-81" value="" style="shape=tableRow;horizontal=0;startSize=0;swimlaneHead=0;swimlaneBody=0;fillColor=none;collapsible=0;dropTarget=0;points=[[0,0.5],[1,0.5]];portConstraint=eastwest;top=0;left=0;right=0;bottom=0;strokeColor=#788AA3;fontColor=#46495D;rounded=0;fontFamily=roboto;fontSource=https%3A%2F%2Ffonts.googleapis.com%2Fcss%3Ffamily%3Droboto;" parent="V7BMSc1rYyxdGBKiwd-H-23" vertex="1">
          <mxGeometry y="456" width="179" height="22" as="geometry" />
        </mxCell>
        <mxCell id="V7BMSc1rYyxdGBKiwd-H-82" value="" style="shape=partialRectangle;connectable=0;fillColor=none;top=0;left=0;bottom=0;right=0;editable=1;overflow=hidden;strokeColor=#788AA3;fontColor=#46495D;rounded=0;fontFamily=roboto;fontSource=https%3A%2F%2Ffonts.googleapis.com%2Fcss%3Ffamily%3Droboto;" parent="V7BMSc1rYyxdGBKiwd-H-81" vertex="1">
          <mxGeometry width="30" height="22" as="geometry">
            <mxRectangle width="30" height="22" as="alternateBounds" />
          </mxGeometry>
        </mxCell>
        <mxCell id="V7BMSc1rYyxdGBKiwd-H-83" value="humidity" style="shape=partialRectangle;connectable=0;fillColor=none;top=0;left=0;bottom=0;right=0;align=left;spacingLeft=6;overflow=hidden;strokeColor=#788AA3;fontColor=#46495D;rounded=0;fontFamily=roboto;fontSource=https%3A%2F%2Ffonts.googleapis.com%2Fcss%3Ffamily%3Droboto;fontSize=16;" parent="V7BMSc1rYyxdGBKiwd-H-81" vertex="1">
          <mxGeometry x="30" width="149" height="22" as="geometry">
            <mxRectangle width="149" height="22" as="alternateBounds" />
          </mxGeometry>
        </mxCell>
        <mxCell id="V7BMSc1rYyxdGBKiwd-H-84" value="" style="shape=tableRow;horizontal=0;startSize=0;swimlaneHead=0;swimlaneBody=0;fillColor=none;collapsible=0;dropTarget=0;points=[[0,0.5],[1,0.5]];portConstraint=eastwest;top=0;left=0;right=0;bottom=0;strokeColor=#788AA3;fontColor=#46495D;rounded=0;fontFamily=roboto;fontSource=https%3A%2F%2Ffonts.googleapis.com%2Fcss%3Ffamily%3Droboto;" parent="V7BMSc1rYyxdGBKiwd-H-23" vertex="1">
          <mxGeometry y="478" width="179" height="22" as="geometry" />
        </mxCell>
        <mxCell id="V7BMSc1rYyxdGBKiwd-H-85" value="" style="shape=partialRectangle;connectable=0;fillColor=none;top=0;left=0;bottom=0;right=0;editable=1;overflow=hidden;strokeColor=#788AA3;fontColor=#46495D;rounded=0;fontFamily=roboto;fontSource=https%3A%2F%2Ffonts.googleapis.com%2Fcss%3Ffamily%3Droboto;" parent="V7BMSc1rYyxdGBKiwd-H-84" vertex="1">
          <mxGeometry width="30" height="22" as="geometry">
            <mxRectangle width="30" height="22" as="alternateBounds" />
          </mxGeometry>
        </mxCell>
        <mxCell id="V7BMSc1rYyxdGBKiwd-H-86" value="descriptionWeather" style="shape=partialRectangle;connectable=0;fillColor=none;top=0;left=0;bottom=0;right=0;align=left;spacingLeft=6;overflow=hidden;strokeColor=#788AA3;fontColor=#46495D;rounded=0;fontFamily=roboto;fontSource=https%3A%2F%2Ffonts.googleapis.com%2Fcss%3Ffamily%3Droboto;fontSize=16;" parent="V7BMSc1rYyxdGBKiwd-H-84" vertex="1">
          <mxGeometry x="30" width="149" height="22" as="geometry">
            <mxRectangle width="149" height="22" as="alternateBounds" />
          </mxGeometry>
        </mxCell>
        <mxCell id="V7BMSc1rYyxdGBKiwd-H-87" value="" style="shape=tableRow;horizontal=0;startSize=0;swimlaneHead=0;swimlaneBody=0;fillColor=none;collapsible=0;dropTarget=0;points=[[0,0.5],[1,0.5]];portConstraint=eastwest;top=0;left=0;right=0;bottom=0;strokeColor=#788AA3;fontColor=#46495D;rounded=0;fontFamily=roboto;fontSource=https%3A%2F%2Ffonts.googleapis.com%2Fcss%3Ffamily%3Droboto;" parent="V7BMSc1rYyxdGBKiwd-H-23" vertex="1">
          <mxGeometry y="500" width="179" height="22" as="geometry" />
        </mxCell>
        <mxCell id="V7BMSc1rYyxdGBKiwd-H-88" value="" style="shape=partialRectangle;connectable=0;fillColor=none;top=0;left=0;bottom=0;right=0;editable=1;overflow=hidden;strokeColor=#788AA3;fontColor=#46495D;rounded=0;fontFamily=roboto;fontSource=https%3A%2F%2Ffonts.googleapis.com%2Fcss%3Ffamily%3Droboto;" parent="V7BMSc1rYyxdGBKiwd-H-87" vertex="1">
          <mxGeometry width="30" height="22" as="geometry">
            <mxRectangle width="30" height="22" as="alternateBounds" />
          </mxGeometry>
        </mxCell>
        <mxCell id="V7BMSc1rYyxdGBKiwd-H-89" value="isLastUpdated" style="shape=partialRectangle;connectable=0;fillColor=none;top=0;left=0;bottom=0;right=0;align=left;spacingLeft=6;overflow=hidden;strokeColor=#788AA3;fontColor=#46495D;rounded=0;fontFamily=roboto;fontSource=https%3A%2F%2Ffonts.googleapis.com%2Fcss%3Ffamily%3Droboto;fontSize=16;" parent="V7BMSc1rYyxdGBKiwd-H-87" vertex="1">
          <mxGeometry x="30" width="149" height="22" as="geometry">
            <mxRectangle width="149" height="22" as="alternateBounds" />
          </mxGeometry>
        </mxCell>
        <mxCell id="V7BMSc1rYyxdGBKiwd-H-90" value="" style="shape=tableRow;horizontal=0;startSize=0;swimlaneHead=0;swimlaneBody=0;fillColor=none;collapsible=0;dropTarget=0;points=[[0,0.5],[1,0.5]];portConstraint=eastwest;top=0;left=0;right=0;bottom=0;strokeColor=#788AA3;fontColor=#46495D;rounded=0;fontFamily=roboto;fontSource=https%3A%2F%2Ffonts.googleapis.com%2Fcss%3Ffamily%3Droboto;" parent="V7BMSc1rYyxdGBKiwd-H-23" vertex="1">
          <mxGeometry y="522" width="179" height="22" as="geometry" />
        </mxCell>
        <mxCell id="V7BMSc1rYyxdGBKiwd-H-91" value="" style="shape=partialRectangle;connectable=0;fillColor=none;top=0;left=0;bottom=0;right=0;editable=1;overflow=hidden;strokeColor=#788AA3;fontColor=#46495D;rounded=0;fontFamily=roboto;fontSource=https%3A%2F%2Ffonts.googleapis.com%2Fcss%3Ffamily%3Droboto;" parent="V7BMSc1rYyxdGBKiwd-H-90" vertex="1">
          <mxGeometry width="30" height="22" as="geometry">
            <mxRectangle width="30" height="22" as="alternateBounds" />
          </mxGeometry>
        </mxCell>
        <mxCell id="V7BMSc1rYyxdGBKiwd-H-92" value="isPattern" style="shape=partialRectangle;connectable=0;fillColor=none;top=0;left=0;bottom=0;right=0;align=left;spacingLeft=6;overflow=hidden;strokeColor=#788AA3;fontColor=#46495D;rounded=0;fontFamily=roboto;fontSource=https%3A%2F%2Ffonts.googleapis.com%2Fcss%3Ffamily%3Droboto;fontSize=16;" parent="V7BMSc1rYyxdGBKiwd-H-90" vertex="1">
          <mxGeometry x="30" width="149" height="22" as="geometry">
            <mxRectangle width="149" height="22" as="alternateBounds" />
          </mxGeometry>
        </mxCell>
        <mxCell id="V7BMSc1rYyxdGBKiwd-H-93" value="BotSetup" style="shape=table;startSize=30;container=1;collapsible=1;childLayout=tableLayout;fixedRows=1;rowLines=0;fontStyle=1;align=center;resizeLast=1;fillColor=#B2C9AB;strokeColor=#788AA3;fontColor=#46495D;rounded=0;fontFamily=roboto;fontSource=https%3A%2F%2Ffonts.googleapis.com%2Fcss%3Ffamily%3Droboto;" parent="1" vertex="1">
          <mxGeometry x="40" y="-2300" width="179" height="222" as="geometry" />
        </mxCell>
        <mxCell id="V7BMSc1rYyxdGBKiwd-H-94" value="" style="shape=tableRow;horizontal=0;startSize=0;swimlaneHead=0;swimlaneBody=0;fillColor=none;collapsible=0;dropTarget=0;points=[[0,0.5],[1,0.5]];portConstraint=eastwest;top=0;left=0;right=0;bottom=1;strokeColor=#788AA3;fontColor=#46495D;rounded=0;fontFamily=roboto;fontSource=https%3A%2F%2Ffonts.googleapis.com%2Fcss%3Ffamily%3Droboto;" parent="V7BMSc1rYyxdGBKiwd-H-93" vertex="1">
          <mxGeometry y="30" width="179" height="30" as="geometry" />
        </mxCell>
        <mxCell id="V7BMSc1rYyxdGBKiwd-H-95" value="PK" style="shape=partialRectangle;connectable=0;fillColor=none;top=0;left=0;bottom=0;right=0;fontStyle=1;overflow=hidden;strokeColor=#788AA3;fontColor=#46495D;rounded=0;fontFamily=roboto;fontSource=https%3A%2F%2Ffonts.googleapis.com%2Fcss%3Ffamily%3Droboto;fontSize=16;" parent="V7BMSc1rYyxdGBKiwd-H-94" vertex="1">
          <mxGeometry width="30" height="30" as="geometry">
            <mxRectangle width="30" height="30" as="alternateBounds" />
          </mxGeometry>
        </mxCell>
        <mxCell id="V7BMSc1rYyxdGBKiwd-H-96" value="ID" style="shape=partialRectangle;connectable=0;fillColor=none;top=0;left=0;bottom=0;right=0;align=left;spacingLeft=6;fontStyle=5;overflow=hidden;strokeColor=#788AA3;fontColor=#46495D;rounded=0;fontFamily=roboto;fontSource=https%3A%2F%2Ffonts.googleapis.com%2Fcss%3Ffamily%3Droboto;fontSize=16;" parent="V7BMSc1rYyxdGBKiwd-H-94" vertex="1">
          <mxGeometry x="30" width="149" height="30" as="geometry">
            <mxRectangle width="149" height="30" as="alternateBounds" />
          </mxGeometry>
        </mxCell>
        <mxCell id="V7BMSc1rYyxdGBKiwd-H-97" value="" style="shape=tableRow;horizontal=0;startSize=0;swimlaneHead=0;swimlaneBody=0;fillColor=none;collapsible=0;dropTarget=0;points=[[0,0.5],[1,0.5]];portConstraint=eastwest;top=0;left=0;right=0;bottom=0;strokeColor=#788AA3;fontColor=#46495D;rounded=0;fontFamily=roboto;fontSource=https%3A%2F%2Ffonts.googleapis.com%2Fcss%3Ffamily%3Droboto;" parent="V7BMSc1rYyxdGBKiwd-H-93" vertex="1">
          <mxGeometry y="60" width="179" height="22" as="geometry" />
        </mxCell>
        <mxCell id="V7BMSc1rYyxdGBKiwd-H-98" value="" style="shape=partialRectangle;connectable=0;fillColor=none;top=0;left=0;bottom=0;right=0;editable=1;overflow=hidden;strokeColor=#788AA3;fontColor=#46495D;rounded=0;fontFamily=roboto;fontSource=https%3A%2F%2Ffonts.googleapis.com%2Fcss%3Ffamily%3Droboto;fontSize=16;" parent="V7BMSc1rYyxdGBKiwd-H-97" vertex="1">
          <mxGeometry width="30" height="22" as="geometry">
            <mxRectangle width="30" height="22" as="alternateBounds" />
          </mxGeometry>
        </mxCell>
        <mxCell id="V7BMSc1rYyxdGBKiwd-H-99" value="channelOwnerId" style="shape=partialRectangle;connectable=0;fillColor=none;top=0;left=0;bottom=0;right=0;align=left;spacingLeft=6;overflow=hidden;strokeColor=#788AA3;fontColor=#46495D;rounded=0;fontFamily=roboto;fontSource=https%3A%2F%2Ffonts.googleapis.com%2Fcss%3Ffamily%3Droboto;fontSize=16;" parent="V7BMSc1rYyxdGBKiwd-H-97" vertex="1">
          <mxGeometry x="30" width="149" height="22" as="geometry">
            <mxRectangle width="149" height="22" as="alternateBounds" />
          </mxGeometry>
        </mxCell>
        <mxCell id="V7BMSc1rYyxdGBKiwd-H-100" value="" style="shape=tableRow;horizontal=0;startSize=0;swimlaneHead=0;swimlaneBody=0;fillColor=none;collapsible=0;dropTarget=0;points=[[0,0.5],[1,0.5]];portConstraint=eastwest;top=0;left=0;right=0;bottom=0;strokeColor=#788AA3;fontColor=#46495D;rounded=0;fontFamily=roboto;fontSource=https%3A%2F%2Ffonts.googleapis.com%2Fcss%3Ffamily%3Droboto;" parent="V7BMSc1rYyxdGBKiwd-H-93" vertex="1">
          <mxGeometry y="82" width="179" height="22" as="geometry" />
        </mxCell>
        <mxCell id="V7BMSc1rYyxdGBKiwd-H-101" value="" style="shape=partialRectangle;connectable=0;fillColor=none;top=0;left=0;bottom=0;right=0;editable=1;overflow=hidden;strokeColor=#788AA3;fontColor=#46495D;rounded=0;fontFamily=roboto;fontSource=https%3A%2F%2Ffonts.googleapis.com%2Fcss%3Ffamily%3Droboto;fontSize=16;" parent="V7BMSc1rYyxdGBKiwd-H-100" vertex="1">
          <mxGeometry width="30" height="22" as="geometry">
            <mxRectangle width="30" height="22" as="alternateBounds" />
          </mxGeometry>
        </mxCell>
        <mxCell id="V7BMSc1rYyxdGBKiwd-H-102" value="channelId" style="shape=partialRectangle;connectable=0;fillColor=none;top=0;left=0;bottom=0;right=0;align=left;spacingLeft=6;overflow=hidden;strokeColor=#788AA3;fontColor=#46495D;rounded=0;fontFamily=roboto;fontSource=https%3A%2F%2Ffonts.googleapis.com%2Fcss%3Ffamily%3Droboto;fontSize=16;" parent="V7BMSc1rYyxdGBKiwd-H-100" vertex="1">
          <mxGeometry x="30" width="149" height="22" as="geometry">
            <mxRectangle width="149" height="22" as="alternateBounds" />
          </mxGeometry>
        </mxCell>
        <mxCell id="V7BMSc1rYyxdGBKiwd-H-103" value="" style="shape=tableRow;horizontal=0;startSize=0;swimlaneHead=0;swimlaneBody=0;fillColor=none;collapsible=0;dropTarget=0;points=[[0,0.5],[1,0.5]];portConstraint=eastwest;top=0;left=0;right=0;bottom=0;strokeColor=#788AA3;fontColor=#46495D;rounded=0;fontFamily=roboto;fontSource=https%3A%2F%2Ffonts.googleapis.com%2Fcss%3Ffamily%3Droboto;" parent="V7BMSc1rYyxdGBKiwd-H-93" vertex="1">
          <mxGeometry y="104" width="179" height="22" as="geometry" />
        </mxCell>
        <mxCell id="V7BMSc1rYyxdGBKiwd-H-104" value="&#xa;&lt;div style=&quot;color: rgb(205, 211, 222); background-color: rgb(29, 34, 37); font-family: Consolas, &amp;quot;Courier New&amp;quot;, monospace; font-weight: normal; font-size: 18px; line-height: 24px;&quot;&gt;&lt;div&gt;&lt;span style=&quot;color: #cdd3de;&quot;&gt;channelTitle&lt;/span&gt;&lt;/div&gt;&lt;/div&gt;&#xa;&#xa;" style="shape=partialRectangle;connectable=0;fillColor=none;top=0;left=0;bottom=0;right=0;editable=1;overflow=hidden;strokeColor=#788AA3;fontColor=#46495D;rounded=0;fontFamily=roboto;fontSource=https%3A%2F%2Ffonts.googleapis.com%2Fcss%3Ffamily%3Droboto;fontSize=16;" parent="V7BMSc1rYyxdGBKiwd-H-103" vertex="1">
          <mxGeometry width="30" height="22" as="geometry">
            <mxRectangle width="30" height="22" as="alternateBounds" />
          </mxGeometry>
        </mxCell>
        <mxCell id="V7BMSc1rYyxdGBKiwd-H-105" value="channelTitle" style="shape=partialRectangle;connectable=0;fillColor=none;top=0;left=0;bottom=0;right=0;align=left;spacingLeft=6;overflow=hidden;strokeColor=#788AA3;fontColor=#46495D;rounded=0;fontFamily=roboto;fontSource=https%3A%2F%2Ffonts.googleapis.com%2Fcss%3Ffamily%3Droboto;fontSize=16;" parent="V7BMSc1rYyxdGBKiwd-H-103" vertex="1">
          <mxGeometry x="30" width="149" height="22" as="geometry">
            <mxRectangle width="149" height="22" as="alternateBounds" />
          </mxGeometry>
        </mxCell>
        <mxCell id="V7BMSc1rYyxdGBKiwd-H-106" value="" style="shape=tableRow;horizontal=0;startSize=0;swimlaneHead=0;swimlaneBody=0;fillColor=none;collapsible=0;dropTarget=0;points=[[0,0.5],[1,0.5]];portConstraint=eastwest;top=0;left=0;right=0;bottom=0;strokeColor=#788AA3;fontColor=#46495D;rounded=0;fontFamily=roboto;fontSource=https%3A%2F%2Ffonts.googleapis.com%2Fcss%3Ffamily%3Droboto;" parent="V7BMSc1rYyxdGBKiwd-H-93" vertex="1">
          <mxGeometry y="126" width="179" height="22" as="geometry" />
        </mxCell>
        <mxCell id="V7BMSc1rYyxdGBKiwd-H-107" value="&#xa;&lt;div style=&quot;color: rgb(205, 211, 222); background-color: rgb(29, 34, 37); font-family: Consolas, &amp;quot;Courier New&amp;quot;, monospace; font-weight: normal; font-size: 18px; line-height: 24px;&quot;&gt;&lt;div&gt;&lt;span style=&quot;color: #cdd3de;&quot;&gt;channelName&lt;/span&gt;&lt;/div&gt;&lt;/div&gt;&#xa;&#xa;" style="shape=partialRectangle;connectable=0;fillColor=none;top=0;left=0;bottom=0;right=0;editable=1;overflow=hidden;strokeColor=#788AA3;fontColor=#46495D;rounded=0;fontFamily=roboto;fontSource=https%3A%2F%2Ffonts.googleapis.com%2Fcss%3Ffamily%3Droboto;fontSize=16;" parent="V7BMSc1rYyxdGBKiwd-H-106" vertex="1">
          <mxGeometry width="30" height="22" as="geometry">
            <mxRectangle width="30" height="22" as="alternateBounds" />
          </mxGeometry>
        </mxCell>
        <mxCell id="V7BMSc1rYyxdGBKiwd-H-108" value="channelName" style="shape=partialRectangle;connectable=0;fillColor=none;top=0;left=0;bottom=0;right=0;align=left;spacingLeft=6;overflow=hidden;strokeColor=#788AA3;fontColor=#46495D;rounded=0;fontFamily=roboto;fontSource=https%3A%2F%2Ffonts.googleapis.com%2Fcss%3Ffamily%3Droboto;fontSize=16;" parent="V7BMSc1rYyxdGBKiwd-H-106" vertex="1">
          <mxGeometry x="30" width="149" height="22" as="geometry">
            <mxRectangle width="149" height="22" as="alternateBounds" />
          </mxGeometry>
        </mxCell>
        <mxCell id="V7BMSc1rYyxdGBKiwd-H-187" value="" style="shape=tableRow;horizontal=0;startSize=0;swimlaneHead=0;swimlaneBody=0;fillColor=none;collapsible=0;dropTarget=0;points=[[0,0.5],[1,0.5]];portConstraint=eastwest;top=0;left=0;right=0;bottom=0;strokeColor=#788AA3;fontColor=#46495D;rounded=0;fontFamily=roboto;fontSource=https%3A%2F%2Ffonts.googleapis.com%2Fcss%3Ffamily%3Droboto;" parent="V7BMSc1rYyxdGBKiwd-H-93" vertex="1">
          <mxGeometry y="148" width="179" height="22" as="geometry" />
        </mxCell>
        <mxCell id="V7BMSc1rYyxdGBKiwd-H-188" value="" style="shape=partialRectangle;connectable=0;fillColor=none;top=0;left=0;bottom=0;right=0;editable=1;overflow=hidden;strokeColor=#788AA3;fontColor=#46495D;rounded=0;fontFamily=roboto;fontSource=https%3A%2F%2Ffonts.googleapis.com%2Fcss%3Ffamily%3Droboto;fontSize=16;" parent="V7BMSc1rYyxdGBKiwd-H-187" vertex="1">
          <mxGeometry width="30" height="22" as="geometry">
            <mxRectangle width="30" height="22" as="alternateBounds" />
          </mxGeometry>
        </mxCell>
        <mxCell id="V7BMSc1rYyxdGBKiwd-H-189" value="groupId" style="shape=partialRectangle;connectable=0;fillColor=none;top=0;left=0;bottom=0;right=0;align=left;spacingLeft=6;overflow=hidden;strokeColor=#788AA3;fontColor=#46495D;rounded=0;fontFamily=roboto;fontSource=https%3A%2F%2Ffonts.googleapis.com%2Fcss%3Ffamily%3Droboto;fontSize=16;" parent="V7BMSc1rYyxdGBKiwd-H-187" vertex="1">
          <mxGeometry x="30" width="149" height="22" as="geometry">
            <mxRectangle width="149" height="22" as="alternateBounds" />
          </mxGeometry>
        </mxCell>
        <mxCell id="V7BMSc1rYyxdGBKiwd-H-190" value="" style="shape=tableRow;horizontal=0;startSize=0;swimlaneHead=0;swimlaneBody=0;fillColor=none;collapsible=0;dropTarget=0;points=[[0,0.5],[1,0.5]];portConstraint=eastwest;top=0;left=0;right=0;bottom=0;strokeColor=#788AA3;fontColor=#46495D;rounded=0;fontFamily=roboto;fontSource=https%3A%2F%2Ffonts.googleapis.com%2Fcss%3Ffamily%3Droboto;" parent="V7BMSc1rYyxdGBKiwd-H-93" vertex="1">
          <mxGeometry y="170" width="179" height="20" as="geometry" />
        </mxCell>
        <mxCell id="V7BMSc1rYyxdGBKiwd-H-191" value="" style="shape=partialRectangle;connectable=0;fillColor=none;top=0;left=0;bottom=0;right=0;editable=1;overflow=hidden;strokeColor=#788AA3;fontColor=#46495D;rounded=0;fontFamily=roboto;fontSource=https%3A%2F%2Ffonts.googleapis.com%2Fcss%3Ffamily%3Droboto;fontSize=16;" parent="V7BMSc1rYyxdGBKiwd-H-190" vertex="1">
          <mxGeometry width="30" height="20" as="geometry">
            <mxRectangle width="30" height="20" as="alternateBounds" />
          </mxGeometry>
        </mxCell>
        <mxCell id="V7BMSc1rYyxdGBKiwd-H-192" value="groupTitle" style="shape=partialRectangle;connectable=0;fillColor=none;top=0;left=0;bottom=0;right=0;align=left;spacingLeft=6;overflow=hidden;strokeColor=#788AA3;fontColor=#46495D;rounded=0;fontFamily=roboto;fontSource=https%3A%2F%2Ffonts.googleapis.com%2Fcss%3Ffamily%3Droboto;fontSize=16;" parent="V7BMSc1rYyxdGBKiwd-H-190" vertex="1">
          <mxGeometry x="30" width="149" height="20" as="geometry">
            <mxRectangle width="149" height="20" as="alternateBounds" />
          </mxGeometry>
        </mxCell>
        <mxCell id="V7BMSc1rYyxdGBKiwd-H-193" value="" style="shape=tableRow;horizontal=0;startSize=0;swimlaneHead=0;swimlaneBody=0;fillColor=none;collapsible=0;dropTarget=0;points=[[0,0.5],[1,0.5]];portConstraint=eastwest;top=0;left=0;right=0;bottom=0;strokeColor=#788AA3;fontColor=#46495D;rounded=0;fontFamily=roboto;fontSource=https%3A%2F%2Ffonts.googleapis.com%2Fcss%3Ffamily%3Droboto;" parent="V7BMSc1rYyxdGBKiwd-H-93" vertex="1">
          <mxGeometry y="190" width="179" height="22" as="geometry" />
        </mxCell>
        <mxCell id="V7BMSc1rYyxdGBKiwd-H-194" value="" style="shape=partialRectangle;connectable=0;fillColor=none;top=0;left=0;bottom=0;right=0;editable=1;overflow=hidden;strokeColor=#788AA3;fontColor=#46495D;rounded=0;fontFamily=roboto;fontSource=https%3A%2F%2Ffonts.googleapis.com%2Fcss%3Ffamily%3Droboto;fontSize=16;" parent="V7BMSc1rYyxdGBKiwd-H-193" vertex="1">
          <mxGeometry width="30" height="22" as="geometry">
            <mxRectangle width="30" height="22" as="alternateBounds" />
          </mxGeometry>
        </mxCell>
        <mxCell id="V7BMSc1rYyxdGBKiwd-H-195" value="apiKeyWeather" style="shape=partialRectangle;connectable=0;fillColor=none;top=0;left=0;bottom=0;right=0;align=left;spacingLeft=6;overflow=hidden;strokeColor=#788AA3;fontColor=#46495D;rounded=0;fontFamily=roboto;fontSource=https%3A%2F%2Ffonts.googleapis.com%2Fcss%3Ffamily%3Droboto;fontSize=16;" parent="V7BMSc1rYyxdGBKiwd-H-193" vertex="1">
          <mxGeometry x="30" width="149" height="22" as="geometry">
            <mxRectangle width="149" height="22" as="alternateBounds" />
          </mxGeometry>
        </mxCell>
        <mxCell id="N2k94I3MblKAYAAtKtvj-1" value="Location" style="shape=table;startSize=30;container=1;collapsible=1;childLayout=tableLayout;fixedRows=1;rowLines=0;fontStyle=1;align=center;resizeLast=1;fillColor=#B2C9AB;strokeColor=#788AA3;fontColor=#46495D;rounded=0;fontFamily=roboto;fontSource=https%3A%2F%2Ffonts.googleapis.com%2Fcss%3Ffamily%3Droboto;" vertex="1" parent="1">
          <mxGeometry x="620" y="-2300" width="179" height="114" as="geometry" />
        </mxCell>
        <mxCell id="N2k94I3MblKAYAAtKtvj-2" value="" style="shape=tableRow;horizontal=0;startSize=0;swimlaneHead=0;swimlaneBody=0;fillColor=none;collapsible=0;dropTarget=0;points=[[0,0.5],[1,0.5]];portConstraint=eastwest;top=0;left=0;right=0;bottom=1;strokeColor=#788AA3;fontColor=#46495D;rounded=0;fontFamily=roboto;fontSource=https%3A%2F%2Ffonts.googleapis.com%2Fcss%3Ffamily%3Droboto;" vertex="1" parent="N2k94I3MblKAYAAtKtvj-1">
          <mxGeometry y="30" width="179" height="30" as="geometry" />
        </mxCell>
        <mxCell id="N2k94I3MblKAYAAtKtvj-3" value="PK" style="shape=partialRectangle;connectable=0;fillColor=none;top=0;left=0;bottom=0;right=0;fontStyle=1;overflow=hidden;strokeColor=#788AA3;fontColor=#46495D;rounded=0;fontFamily=roboto;fontSource=https%3A%2F%2Ffonts.googleapis.com%2Fcss%3Ffamily%3Droboto;fontSize=16;" vertex="1" parent="N2k94I3MblKAYAAtKtvj-2">
          <mxGeometry width="30" height="30" as="geometry">
            <mxRectangle width="30" height="30" as="alternateBounds" />
          </mxGeometry>
        </mxCell>
        <mxCell id="N2k94I3MblKAYAAtKtvj-4" value="ID" style="shape=partialRectangle;connectable=0;fillColor=none;top=0;left=0;bottom=0;right=0;align=left;spacingLeft=6;fontStyle=5;overflow=hidden;strokeColor=#788AA3;fontColor=#46495D;rounded=0;fontFamily=roboto;fontSource=https%3A%2F%2Ffonts.googleapis.com%2Fcss%3Ffamily%3Droboto;fontSize=16;" vertex="1" parent="N2k94I3MblKAYAAtKtvj-2">
          <mxGeometry x="30" width="149" height="30" as="geometry">
            <mxRectangle width="149" height="30" as="alternateBounds" />
          </mxGeometry>
        </mxCell>
        <mxCell id="N2k94I3MblKAYAAtKtvj-5" value="" style="shape=tableRow;horizontal=0;startSize=0;swimlaneHead=0;swimlaneBody=0;fillColor=none;collapsible=0;dropTarget=0;points=[[0,0.5],[1,0.5]];portConstraint=eastwest;top=0;left=0;right=0;bottom=0;strokeColor=#788AA3;fontColor=#46495D;rounded=0;fontFamily=roboto;fontSource=https%3A%2F%2Ffonts.googleapis.com%2Fcss%3Ffamily%3Droboto;" vertex="1" parent="N2k94I3MblKAYAAtKtvj-1">
          <mxGeometry y="60" width="179" height="22" as="geometry" />
        </mxCell>
        <mxCell id="N2k94I3MblKAYAAtKtvj-6" value="" style="shape=partialRectangle;connectable=0;fillColor=none;top=0;left=0;bottom=0;right=0;editable=1;overflow=hidden;strokeColor=#788AA3;fontColor=#46495D;rounded=0;fontFamily=roboto;fontSource=https%3A%2F%2Ffonts.googleapis.com%2Fcss%3Ffamily%3Droboto;fontSize=16;" vertex="1" parent="N2k94I3MblKAYAAtKtvj-5">
          <mxGeometry width="30" height="22" as="geometry">
            <mxRectangle width="30" height="22" as="alternateBounds" />
          </mxGeometry>
        </mxCell>
        <mxCell id="N2k94I3MblKAYAAtKtvj-7" value="name" style="shape=partialRectangle;connectable=0;fillColor=none;top=0;left=0;bottom=0;right=0;align=left;spacingLeft=6;overflow=hidden;strokeColor=#788AA3;fontColor=#46495D;rounded=0;fontFamily=roboto;fontSource=https%3A%2F%2Ffonts.googleapis.com%2Fcss%3Ffamily%3Droboto;fontSize=16;" vertex="1" parent="N2k94I3MblKAYAAtKtvj-5">
          <mxGeometry x="30" width="149" height="22" as="geometry">
            <mxRectangle width="149" height="22" as="alternateBounds" />
          </mxGeometry>
        </mxCell>
        <mxCell id="N2k94I3MblKAYAAtKtvj-8" value="" style="shape=tableRow;horizontal=0;startSize=0;swimlaneHead=0;swimlaneBody=0;fillColor=none;collapsible=0;dropTarget=0;points=[[0,0.5],[1,0.5]];portConstraint=eastwest;top=0;left=0;right=0;bottom=0;strokeColor=#788AA3;fontColor=#46495D;rounded=0;fontFamily=roboto;fontSource=https%3A%2F%2Ffonts.googleapis.com%2Fcss%3Ffamily%3Droboto;" vertex="1" parent="N2k94I3MblKAYAAtKtvj-1">
          <mxGeometry y="82" width="179" height="22" as="geometry" />
        </mxCell>
        <mxCell id="N2k94I3MblKAYAAtKtvj-9" value="" style="shape=partialRectangle;connectable=0;fillColor=none;top=0;left=0;bottom=0;right=0;editable=1;overflow=hidden;strokeColor=#788AA3;fontColor=#46495D;rounded=0;fontFamily=roboto;fontSource=https%3A%2F%2Ffonts.googleapis.com%2Fcss%3Ffamily%3Droboto;fontSize=16;" vertex="1" parent="N2k94I3MblKAYAAtKtvj-8">
          <mxGeometry width="30" height="22" as="geometry">
            <mxRectangle width="30" height="22" as="alternateBounds" />
          </mxGeometry>
        </mxCell>
        <mxCell id="N2k94I3MblKAYAAtKtvj-10" value="weather" style="shape=partialRectangle;connectable=0;fillColor=none;top=0;left=0;bottom=0;right=0;align=left;spacingLeft=6;overflow=hidden;strokeColor=#788AA3;fontColor=#46495D;rounded=0;fontFamily=roboto;fontSource=https%3A%2F%2Ffonts.googleapis.com%2Fcss%3Ffamily%3Droboto;fontSize=16;" vertex="1" parent="N2k94I3MblKAYAAtKtvj-8">
          <mxGeometry x="30" width="149" height="22" as="geometry">
            <mxRectangle width="149" height="22" as="alternateBounds" />
          </mxGeometry>
        </mxCell>
        <mxCell id="N2k94I3MblKAYAAtKtvj-53" style="edgeStyle=orthogonalEdgeStyle;orthogonalLoop=1;jettySize=auto;html=1;strokeColor=#788AA3;fontFamily=Verdana;fontSize=16;fontColor=#46495D;fillColor=#B2C9AB;entryX=0;entryY=0.5;entryDx=0;entryDy=0;" edge="1" parent="1" source="V7BMSc1rYyxdGBKiwd-H-94" target="V7BMSc1rYyxdGBKiwd-H-24">
          <mxGeometry relative="1" as="geometry" />
        </mxCell>
        <mxCell id="N2k94I3MblKAYAAtKtvj-54" value="Poll" style="shape=table;startSize=30;container=1;collapsible=1;childLayout=tableLayout;fixedRows=1;rowLines=0;fontStyle=1;align=center;resizeLast=1;fillColor=#B2C9AB;strokeColor=#788AA3;fontColor=#46495D;rounded=0;fontFamily=roboto;fontSource=https%3A%2F%2Ffonts.googleapis.com%2Fcss%3Ffamily%3Droboto;" vertex="1" parent="1">
          <mxGeometry x="620" y="-2120" width="179" height="136" as="geometry" />
        </mxCell>
        <mxCell id="N2k94I3MblKAYAAtKtvj-55" value="" style="shape=tableRow;horizontal=0;startSize=0;swimlaneHead=0;swimlaneBody=0;fillColor=none;collapsible=0;dropTarget=0;points=[[0,0.5],[1,0.5]];portConstraint=eastwest;top=0;left=0;right=0;bottom=1;strokeColor=#788AA3;fontColor=#46495D;rounded=0;fontFamily=roboto;fontSource=https%3A%2F%2Ffonts.googleapis.com%2Fcss%3Ffamily%3Droboto;" vertex="1" parent="N2k94I3MblKAYAAtKtvj-54">
          <mxGeometry y="30" width="179" height="30" as="geometry" />
        </mxCell>
        <mxCell id="N2k94I3MblKAYAAtKtvj-56" value="PK" style="shape=partialRectangle;connectable=0;fillColor=none;top=0;left=0;bottom=0;right=0;fontStyle=1;overflow=hidden;strokeColor=#788AA3;fontColor=#46495D;rounded=0;fontFamily=roboto;fontSource=https%3A%2F%2Ffonts.googleapis.com%2Fcss%3Ffamily%3Droboto;fontSize=16;" vertex="1" parent="N2k94I3MblKAYAAtKtvj-55">
          <mxGeometry width="30" height="30" as="geometry">
            <mxRectangle width="30" height="30" as="alternateBounds" />
          </mxGeometry>
        </mxCell>
        <mxCell id="N2k94I3MblKAYAAtKtvj-57" value="ID" style="shape=partialRectangle;connectable=0;fillColor=none;top=0;left=0;bottom=0;right=0;align=left;spacingLeft=6;fontStyle=5;overflow=hidden;strokeColor=#788AA3;fontColor=#46495D;rounded=0;fontFamily=roboto;fontSource=https%3A%2F%2Ffonts.googleapis.com%2Fcss%3Ffamily%3Droboto;fontSize=16;" vertex="1" parent="N2k94I3MblKAYAAtKtvj-55">
          <mxGeometry x="30" width="149" height="30" as="geometry">
            <mxRectangle width="149" height="30" as="alternateBounds" />
          </mxGeometry>
        </mxCell>
        <mxCell id="N2k94I3MblKAYAAtKtvj-58" value="" style="shape=tableRow;horizontal=0;startSize=0;swimlaneHead=0;swimlaneBody=0;fillColor=none;collapsible=0;dropTarget=0;points=[[0,0.5],[1,0.5]];portConstraint=eastwest;top=0;left=0;right=0;bottom=0;strokeColor=#788AA3;fontColor=#46495D;rounded=0;fontFamily=roboto;fontSource=https%3A%2F%2Ffonts.googleapis.com%2Fcss%3Ffamily%3Droboto;" vertex="1" parent="N2k94I3MblKAYAAtKtvj-54">
          <mxGeometry y="60" width="179" height="22" as="geometry" />
        </mxCell>
        <mxCell id="N2k94I3MblKAYAAtKtvj-59" value="" style="shape=partialRectangle;connectable=0;fillColor=none;top=0;left=0;bottom=0;right=0;editable=1;overflow=hidden;strokeColor=#788AA3;fontColor=#46495D;rounded=0;fontFamily=roboto;fontSource=https%3A%2F%2Ffonts.googleapis.com%2Fcss%3Ffamily%3Droboto;fontSize=16;" vertex="1" parent="N2k94I3MblKAYAAtKtvj-58">
          <mxGeometry width="30" height="22" as="geometry">
            <mxRectangle width="30" height="22" as="alternateBounds" />
          </mxGeometry>
        </mxCell>
        <mxCell id="N2k94I3MblKAYAAtKtvj-60" value="poll" style="shape=partialRectangle;connectable=0;fillColor=none;top=0;left=0;bottom=0;right=0;align=left;spacingLeft=6;overflow=hidden;strokeColor=#788AA3;fontColor=#46495D;rounded=0;fontFamily=roboto;fontSource=https%3A%2F%2Ffonts.googleapis.com%2Fcss%3Ffamily%3Droboto;fontSize=16;" vertex="1" parent="N2k94I3MblKAYAAtKtvj-58">
          <mxGeometry x="30" width="149" height="22" as="geometry">
            <mxRectangle width="149" height="22" as="alternateBounds" />
          </mxGeometry>
        </mxCell>
        <mxCell id="N2k94I3MblKAYAAtKtvj-61" value="" style="shape=tableRow;horizontal=0;startSize=0;swimlaneHead=0;swimlaneBody=0;fillColor=none;collapsible=0;dropTarget=0;points=[[0,0.5],[1,0.5]];portConstraint=eastwest;top=0;left=0;right=0;bottom=0;strokeColor=#788AA3;fontColor=#46495D;rounded=0;fontFamily=roboto;fontSource=https%3A%2F%2Ffonts.googleapis.com%2Fcss%3Ffamily%3Droboto;" vertex="1" parent="N2k94I3MblKAYAAtKtvj-54">
          <mxGeometry y="82" width="179" height="22" as="geometry" />
        </mxCell>
        <mxCell id="N2k94I3MblKAYAAtKtvj-62" value="" style="shape=partialRectangle;connectable=0;fillColor=none;top=0;left=0;bottom=0;right=0;editable=1;overflow=hidden;strokeColor=#788AA3;fontColor=#46495D;rounded=0;fontFamily=roboto;fontSource=https%3A%2F%2Ffonts.googleapis.com%2Fcss%3Ffamily%3Droboto;fontSize=16;" vertex="1" parent="N2k94I3MblKAYAAtKtvj-61">
          <mxGeometry width="30" height="22" as="geometry">
            <mxRectangle width="30" height="22" as="alternateBounds" />
          </mxGeometry>
        </mxCell>
        <mxCell id="N2k94I3MblKAYAAtKtvj-63" value="pollUsers" style="shape=partialRectangle;connectable=0;fillColor=none;top=0;left=0;bottom=0;right=0;align=left;spacingLeft=6;overflow=hidden;strokeColor=#788AA3;fontColor=#46495D;rounded=0;fontFamily=roboto;fontSource=https%3A%2F%2Ffonts.googleapis.com%2Fcss%3Ffamily%3Droboto;fontSize=16;" vertex="1" parent="N2k94I3MblKAYAAtKtvj-61">
          <mxGeometry x="30" width="149" height="22" as="geometry">
            <mxRectangle width="149" height="22" as="alternateBounds" />
          </mxGeometry>
        </mxCell>
        <mxCell id="N2k94I3MblKAYAAtKtvj-64" value="" style="shape=tableRow;horizontal=0;startSize=0;swimlaneHead=0;swimlaneBody=0;fillColor=none;collapsible=0;dropTarget=0;points=[[0,0.5],[1,0.5]];portConstraint=eastwest;top=0;left=0;right=0;bottom=0;strokeColor=#788AA3;fontColor=#46495D;rounded=0;fontFamily=roboto;fontSource=https%3A%2F%2Ffonts.googleapis.com%2Fcss%3Ffamily%3Droboto;" vertex="1" parent="N2k94I3MblKAYAAtKtvj-54">
          <mxGeometry y="104" width="179" height="22" as="geometry" />
        </mxCell>
        <mxCell id="N2k94I3MblKAYAAtKtvj-65" value="" style="shape=partialRectangle;connectable=0;fillColor=none;top=0;left=0;bottom=0;right=0;editable=1;overflow=hidden;strokeColor=#788AA3;fontColor=#46495D;rounded=0;fontFamily=roboto;fontSource=https%3A%2F%2Ffonts.googleapis.com%2Fcss%3Ffamily%3Droboto;fontSize=16;" vertex="1" parent="N2k94I3MblKAYAAtKtvj-64">
          <mxGeometry width="30" height="22" as="geometry">
            <mxRectangle width="30" height="22" as="alternateBounds" />
          </mxGeometry>
        </mxCell>
        <mxCell id="N2k94I3MblKAYAAtKtvj-66" value="pollQuantity" style="shape=partialRectangle;connectable=0;fillColor=none;top=0;left=0;bottom=0;right=0;align=left;spacingLeft=6;overflow=hidden;strokeColor=#788AA3;fontColor=#46495D;rounded=0;fontFamily=roboto;fontSource=https%3A%2F%2Ffonts.googleapis.com%2Fcss%3Ffamily%3Droboto;fontSize=16;" vertex="1" parent="N2k94I3MblKAYAAtKtvj-64">
          <mxGeometry x="30" width="149" height="22" as="geometry">
            <mxRectangle width="149" height="22" as="alternateBounds" />
          </mxGeometry>
        </mxCell>
      </root>
    </mxGraphModel>
  </diagram>
</mxfile>
